<?xml version="1.0" encoding="utf-8"?>
<!-- Generator: Adobe Illustrator 18.1.1, SVG Export Plug-In . SVG Version: 6.00 Build 0)  -->
<svg version="1.1" id="Layer_1" xmlns="http://www.w3.org/2000/svg" xmlns:xlink="http://www.w3.org/1999/xlink" x="0px" y="0px"
	 viewBox="0 0 800 800" enable-background="new 0 0 800 800" xml:space="preserve">
<g>
	<g>
		<path fill="#1B7CD1" d="M404.2,731.9c-178.4,0-323.6-145.2-323.6-323.6S225.7,84.6,404.2,84.6s323.6,145.2,323.6,323.6
			S582.6,731.9,404.2,731.9z M404.2,126.8c-155.2,0-281.5,126.3-281.5,281.5s126.3,281.5,281.5,281.5s281.5-126.3,281.5-281.5
			S559.4,126.8,404.2,126.8z"/>
	</g>
	<g>
		<g>
			<g>
				<g>
					<path fill="#1B7CD1" d="M296.2,526c-5.4,0-10.8-2.1-14.9-6.2c-8.2-8.2-8.2-21.6,0-29.8l67.8-67.8c8.2-8.2,21.6-8.2,29.8,0
						c8.2,8.2,8.2,21.6,0,29.8l-67.8,67.8C307,523.9,301.6,526,296.2,526z"/>
				</g>
				<g>
					<path fill="#1B7CD1" d="M364.1,597c-5.4,0-10.8-2.1-14.9-6.2L281.3,523c-8.2-8.2-8.2-21.6,0-29.8c8.2-8.2,21.6-8.2,29.8,0
						L379,561c8.2,8.2,8.2,21.6,0,29.8C374.8,595,369.5,597,364.1,597z"/>
				</g>
			</g>
			<g>
				<g>
					<path fill="#1B7CD1" d="M501.3,526c-5.4,0-10.8-2.1-14.9-6.2L418.6,452c-8.2-8.2-8.2-21.6,0-29.8c8.2-8.2,21.6-8.2,29.8,0
						l67.8,67.8c8.2,8.2,8.2,21.6,0,29.8C512.1,523.9,506.7,526,501.3,526z"/>
				</g>
				<g>
					<path fill="#1B7CD1" d="M433.5,597c-5.4,0-10.8-2.1-14.9-6.2c-8.2-8.2-8.2-21.6,0-29.8l67.8-67.8c8.2-8.2,21.6-8.2,29.8,0
						c8.2,8.2,8.2,21.6,0,29.8l-67.8,67.8C444.3,595,438.9,597,433.5,597z"/>
				</g>
			</g>
			<g>
				<g>
					<path fill="#1B7CD1" d="M296.2,314.6c-5.4,0-10.8-2.1-14.9-6.2c-8.2-8.2-8.2-21.6,0-29.8l67.8-67.8c8.2-8.2,21.6-8.2,29.8,0
						s8.2,21.6,0,29.8l-67.8,67.8C307,312.5,301.6,314.6,296.2,314.6z"/>
				</g>
				<g>
					<path fill="#1B7CD1" d="M364.1,385.6c-5.4,0-10.8-2.1-14.9-6.2l-67.8-67.8c-8.2-8.2-8.2-21.6,0-29.8c8.2-8.2,21.6-8.2,29.8,0
						l67.8,67.8c8.2,8.2,8.2,21.6,0,29.8C374.8,383.5,369.5,385.6,364.1,385.6z"/>
				</g>
			</g>
			<g>
				<g>
					<path fill="#1B7CD1" d="M501.3,314.6c-5.4,0-10.8-2.1-14.9-6.2l-67.8-67.8c-8.2-8.2-8.2-21.6,0-29.8s21.6-8.2,29.8,0l67.8,67.8
						c8.2,8.2,8.2,21.6,0,29.8C512.1,312.5,506.7,314.6,501.3,314.6z"/>
				</g>
				<g>
					<path fill="#1B7CD1" d="M433.5,385.6c-5.4,0-10.8-2.1-14.9-6.2c-8.2-8.2-8.2-21.6,0-29.8l67.8-67.8c8.2-8.2,21.6-8.2,29.8,0
						c8.2,8.2,8.2,21.6,0,29.8l-67.8,67.8C444.3,383.5,438.9,385.6,433.5,385.6z"/>
				</g>
			</g>
		</g>
		<g>
			<g>
				<g>
					<path fill="#FFFFFF" d="M290.3,507.9c-5.4,0-10.8-2.1-14.9-6.2c-8.2-8.2-8.2-21.6,0-29.8l67.8-67.8c8.2-8.2,21.6-8.2,29.8,0
						s8.2,21.6,0,29.8l-67.8,67.8C301.1,505.8,295.7,507.9,290.3,507.9z"/>
				</g>
				<g>
					<path fill="#FFFFFF" d="M358.2,578.9c-5.4,0-10.8-2.1-14.9-6.2l-67.8-67.8c-8.2-8.2-8.2-21.6,0-29.8s21.6-8.2,29.8,0l67.8,67.8
						c8.2,8.2,8.2,21.6,0,29.8C368.9,576.8,363.5,578.9,358.2,578.9z"/>
				</g>
			</g>
			<g>
				<g>
					<path fill="#FFFFFF" d="M495.4,507.9c-5.4,0-10.8-2.1-14.9-6.2l-67.8-67.8c-8.2-8.2-8.2-21.6,0-29.8s21.6-8.2,29.8,0l67.8,67.8
						c8.2,8.2,8.2,21.6,0,29.8C506.2,505.8,500.8,507.9,495.4,507.9z"/>
				</g>
				<g>
					<path fill="#FFFFFF" d="M427.6,578.9c-5.4,0-10.8-2.1-14.9-6.2c-8.2-8.2-8.2-21.6,0-29.8l67.8-67.8c8.2-8.2,21.6-8.2,29.8,0
						s8.2,21.6,0,29.8l-67.8,67.8C438.4,576.8,433,578.9,427.6,578.9z"/>
				</g>
			</g>
			<g>
				<g>
					<path fill="#FFFFFF" d="M290.3,296.4c-5.4,0-10.8-2.1-14.9-6.2c-8.2-8.2-8.2-21.6,0-29.8l67.8-67.8c8.2-8.2,21.6-8.2,29.8,0
						s8.2,21.6,0,29.8l-67.8,67.8C301.1,294.4,295.7,296.4,290.3,296.4z"/>
				</g>
				<g>
					<path fill="#FFFFFF" d="M358.2,367.5c-5.4,0-10.8-2.1-14.9-6.2l-67.8-67.8c-8.2-8.2-8.2-21.6,0-29.8c8.2-8.2,21.6-8.2,29.8,0
						l67.8,67.8c8.2,8.2,8.2,21.6,0,29.8C368.9,365.4,363.5,367.5,358.2,367.5z"/>
				</g>
			</g>
			<g>
				<g>
					<path fill="#FFFFFF" d="M495.4,296.4c-5.4,0-10.8-2.1-14.9-6.2l-67.8-67.8c-8.2-8.2-8.2-21.6,0-29.8s21.6-8.2,29.8,0l67.8,67.8
						c8.2,8.2,8.2,21.6,0,29.8C506.2,294.4,500.8,296.4,495.4,296.4z"/>
				</g>
				<g>
					<path fill="#FFFFFF" d="M427.6,367.5c-5.4,0-10.8-2.1-14.9-6.2c-8.2-8.2-8.2-21.6,0-29.8l67.8-67.8c8.2-8.2,21.6-8.2,29.8,0
						c8.2,8.2,8.2,21.6,0,29.8l-67.8,67.8C438.4,365.4,433,367.5,427.6,367.5z"/>
				</g>
			</g>
		</g>
	</g>
	<g>
		<path fill="#FFFFFF" d="M395.8,715.4c-178.4,0-323.6-145.2-323.6-323.6c0-178.4,145.2-323.6,323.6-323.6
			c178.4,0,323.6,145.2,323.6,323.6C719.5,570.2,574.3,715.4,395.8,715.4z M395.8,110.3c-155.2,0-281.5,126.3-281.5,281.5
			c0,155.2,126.3,281.5,281.5,281.5c155.2,0,281.5-126.3,281.5-281.5C677.3,236.5,551.1,110.3,395.8,110.3z"/>
	</g>
</g>
</svg>
