<?xml version="1.0" encoding="utf-8"?>
<!-- Generator: Adobe Illustrator 18.1.1, SVG Export Plug-In . SVG Version: 6.00 Build 0)  -->
<svg version="1.1" id="Layer_1" xmlns="http://www.w3.org/2000/svg" xmlns:xlink="http://www.w3.org/1999/xlink" x="0px" y="0px"
	 viewBox="0 0 1834 800" enable-background="new 0 0 1834 800" xml:space="preserve">
<g>
	<g>
		<g>
			<path fill="#1B7CD1" d="M154.9,400.1c0-94.3,47-139.7,124.2-139.7c37.8,0,70.8,16.3,89.6,42.2c2,2.8,2.8,5.6,2.8,8.4
				c0,7.2-5.6,12.7-12.7,12.7c-3.6,0-7.2-1.2-10.4-5.2c-13.5-18.7-39.4-33.4-69.3-33.4c-61.3,0-96.3,37-96.3,115
				c0,82.8,35,114.6,96.3,114.6c26.3,0,53.7-10.3,69.3-32.6c2.8-4,7.2-5.2,10.4-5.2c7.2,0,12.7,5.6,12.7,12.7c0,3.2-0.8,5.2-2.4,7.6
				c-17.5,25.5-53.3,42.2-90,42.2C201.9,539.4,154.9,498,154.9,400.1z"/>
		</g>
		<g>
			<path fill="#1B7CD1" d="M406.1,400.1c0-94.3,47-139.7,124.2-139.7s124.2,45.4,124.2,139.7c0,93.5-47,139.3-124.2,139.3
				S406.1,493.6,406.1,400.1z M433.9,400.1c0,77.6,35.4,114.6,96.3,114.6c60.9,0,96.3-37,96.3-114.6c0-78-35.4-115-96.3-115
				C469.3,285.1,433.9,322.1,433.9,400.1z"/>
		</g>
		<g>
			<path fill="#1B7CD1" d="M773.4,266c76,0,123,35.8,123,134.1c0,98.3-47,133.7-123,133.7h-56.1c-7.6,0-13.5-6-13.5-13.5V279.5
				c0-7.6,6-13.5,13.5-13.5H773.4z M730.8,509.1h42.6c59.3,0,95.5-26.3,95.5-109.1c0-82-36.2-109.5-95.5-109.5h-42.6V509.1z"/>
		</g>
		<g>
			<path fill="#1B7CD1" d="M959.2,533.8c-7.6,0-13.5-6-13.5-13.5V279.5c0-7.6,6-13.5,13.5-13.5H1087c6.8,0,12.3,5.6,12.3,12.3
				c0,6.8-5.6,12.3-12.3,12.3H972.8v95.9h87.6c6.8,0,12.3,5.6,12.3,12.3c0,6.8-5.6,12.3-12.3,12.3h-87.6v97.9h118.6
				c6.8,0,12.3,5.6,12.3,12.3c0,6.8-5.6,12.3-12.3,12.3H959.2z"/>
		</g>
		<g>
			<path fill="#1B7CD1" d="M1178.9,523.5c0,7.6-6,13.5-13.5,13.5c-7.6,0-13.5-6-13.5-13.5v-244c0-7.6,6-13.5,13.5-13.5h79.2
				c44.2,0,76,33.4,76,76c0,41-28.3,74-71.2,76l72.8,97.1c2,2.4,2.8,5.6,2.8,8.4c0,7.6-6,13.5-13.5,13.5c-4,0-8.4-1.6-11.5-6.4
				L1219.1,418h-40.2V523.5z M1178.9,393.3h66.5c27.9,0,47.8-22.7,47.8-51.3c0-29.5-20.3-51.3-49-51.3h-65.3V393.3z"/>
		</g>
	</g>
	<g>
		<g>
			<path fill="#FFFFFF" d="M143.9,389c0-94.3,47-139.7,124.2-139.7c37.8,0,70.8,16.3,89.6,42.2c2,2.8,2.8,5.6,2.8,8.4
				c0,7.2-5.6,12.7-12.7,12.7c-3.6,0-7.2-1.2-10.4-5.2c-13.5-18.7-39.4-33.4-69.3-33.4c-61.3,0-96.3,37-96.3,115
				c0,82.8,35,114.6,96.3,114.6c26.3,0,53.7-10.3,69.3-32.6c2.8-4,7.2-5.2,10.4-5.2c7.2,0,12.7,5.6,12.7,12.7c0,3.2-0.8,5.2-2.4,7.6
				c-17.5,25.5-53.3,42.2-90,42.2C190.8,528.3,143.9,486.9,143.9,389z"/>
		</g>
		<g>
			<path fill="#FFFFFF" d="M395,389c0-94.3,47-139.7,124.2-139.7S643.4,294.7,643.4,389c0,93.5-47,139.3-124.2,139.3
				S395,482.6,395,389z M422.9,389c0,77.6,35.4,114.6,96.3,114.6s96.3-37,96.3-114.6c0-78-35.4-115-96.3-115S422.9,311,422.9,389z"
				/>
		</g>
		<g>
			<path fill="#FFFFFF" d="M762.3,254.9c76,0,123,35.8,123,134.1c0,98.3-47,133.7-123,133.7h-56.1c-7.6,0-13.5-6-13.5-13.5V268.4
				c0-7.6,6-13.5,13.5-13.5H762.3z M719.7,498.1h42.6c59.3,0,95.5-26.3,95.5-109.1c0-82-36.2-109.5-95.5-109.5h-42.6V498.1z"/>
		</g>
		<g>
			<path fill="#FFFFFF" d="M948.2,522.8c-7.6,0-13.5-6-13.5-13.5V268.4c0-7.6,6-13.5,13.5-13.5h127.8c6.8,0,12.3,5.6,12.3,12.3
				c0,6.8-5.6,12.3-12.3,12.3H961.7v95.9h87.6c6.8,0,12.3,5.6,12.3,12.3c0,6.8-5.6,12.3-12.3,12.3h-87.6v97.9h118.6
				c6.8,0,12.3,5.6,12.3,12.3c0,6.8-5.6,12.3-12.3,12.3H948.2z"/>
		</g>
		<g>
			<path fill="#FFFFFF" d="M1167.9,512.4c0,7.6-6,13.5-13.5,13.5c-7.6,0-13.5-6-13.5-13.5v-244c0-7.6,6-13.5,13.5-13.5h79.2
				c44.2,0,76,33.4,76,76c0,41-28.3,74-71.2,76l72.8,97.1c2,2.4,2.8,5.6,2.8,8.4c0,7.6-6,13.5-13.5,13.5c-4,0-8.4-1.6-11.5-6.4
				l-80.8-112.6h-40.2V512.4z M1167.9,382.3h66.5c27.9,0,47.8-22.7,47.8-51.3c0-29.5-20.3-51.3-49-51.3h-65.3V382.3z"/>
		</g>
	</g>
	<g>
		<path fill="#1B7CD1" d="M1541.5,552.4c-81.9,0-148.6-66.6-148.6-148.6s66.6-148.6,148.6-148.6c81.9,0,148.6,66.6,148.6,148.6
			S1623.4,552.4,1541.5,552.4z M1541.5,274.6c-71.3,0-129.2,58-129.2,129.2s58,129.2,129.2,129.2c71.3,0,129.2-58,129.2-129.2
			S1612.8,274.6,1541.5,274.6z"/>
	</g>
	<g>
		<g>
			<g>
				<g>
					<path fill="#1B7CD1" d="M1492,457.8c-2.5,0-4.9-0.9-6.8-2.8c-3.8-3.8-3.8-9.9,0-13.7l31.1-31.1c3.8-3.8,9.9-3.8,13.7,0
						c3.8,3.8,3.8,9.9,0,13.7l-31.1,31.1C1496.9,456.9,1494.4,457.8,1492,457.8z"/>
				</g>
				<g>
					<path fill="#1B7CD1" d="M1523.1,490.5c-2.5,0-4.9-0.9-6.8-2.8l-31.1-31.1c-3.8-3.8-3.8-9.9,0-13.7c3.8-3.8,9.9-3.8,13.7,0
						l31.1,31.1c3.8,3.8,3.8,9.9,0,13.7C1528,489.5,1525.6,490.5,1523.1,490.5z"/>
				</g>
			</g>
			<g>
				<g>
					<path fill="#1B7CD1" d="M1586.1,457.8c-2.5,0-4.9-0.9-6.8-2.8l-31.1-31.1c-3.8-3.8-3.8-9.9,0-13.7c3.8-3.8,9.9-3.8,13.7,0
						l31.1,31.1c3.8,3.8,3.8,9.9,0,13.7C1591.1,456.9,1588.6,457.8,1586.1,457.8z"/>
				</g>
				<g>
					<path fill="#1B7CD1" d="M1555,490.5c-2.5,0-4.9-0.9-6.8-2.8c-3.8-3.8-3.8-9.9,0-13.7l31.1-31.1c3.8-3.8,9.9-3.8,13.7,0
						c3.8,3.8,3.8,9.9,0,13.7l-31.1,31.1C1559.9,489.5,1557.5,490.5,1555,490.5z"/>
				</g>
			</g>
			<g>
				<g>
					<path fill="#1B7CD1" d="M1492,360.8c-2.5,0-4.9-0.9-6.8-2.8c-3.8-3.8-3.8-9.9,0-13.7l31.1-31.1c3.8-3.8,9.9-3.8,13.7,0
						c3.8,3.8,3.8,9.9,0,13.7l-31.1,31.1C1496.9,359.8,1494.4,360.8,1492,360.8z"/>
				</g>
				<g>
					<path fill="#1B7CD1" d="M1523.1,393.4c-2.5,0-4.9-0.9-6.8-2.8l-31.1-31.1c-3.8-3.8-3.8-9.9,0-13.7c3.8-3.8,9.9-3.8,13.7,0
						l31.1,31.1c3.8,3.8,3.8,9.9,0,13.7C1528,392.4,1525.6,393.4,1523.1,393.4z"/>
				</g>
			</g>
			<g>
				<g>
					<path fill="#1B7CD1" d="M1586.1,360.8c-2.5,0-4.9-0.9-6.8-2.8l-31.1-31.1c-3.8-3.8-3.8-9.9,0-13.7c3.8-3.8,9.9-3.8,13.7,0
						l31.1,31.1c3.8,3.8,3.8,9.9,0,13.7C1591.1,359.8,1588.6,360.8,1586.1,360.8z"/>
				</g>
				<g>
					<path fill="#1B7CD1" d="M1555,393.4c-2.5,0-4.9-0.9-6.8-2.8c-3.8-3.8-3.8-9.9,0-13.7l31.1-31.1c3.8-3.8,9.9-3.8,13.7,0
						c3.8,3.8,3.8,9.9,0,13.7l-31.1,31.1C1559.9,392.4,1557.5,393.4,1555,393.4z"/>
				</g>
			</g>
		</g>
		<g>
			<g>
				<g>
					<path fill="#FFFFFF" d="M1489.3,449.5c-2.5,0-4.9-0.9-6.8-2.8c-3.8-3.8-3.8-9.9,0-13.7l31.1-31.1c3.8-3.8,9.9-3.8,13.7,0
						c3.8,3.8,3.8,9.9,0,13.7l-31.1,31.1C1494.2,448.6,1491.7,449.5,1489.3,449.5z"/>
				</g>
				<g>
					<path fill="#FFFFFF" d="M1520.4,482.1c-2.5,0-4.9-0.9-6.8-2.8l-31.1-31.1c-3.8-3.8-3.8-9.9,0-13.7s9.9-3.8,13.7,0l31.1,31.1
						c3.8,3.8,3.8,9.9,0,13.7C1525.3,481.2,1522.9,482.1,1520.4,482.1z"/>
				</g>
			</g>
			<g>
				<g>
					<path fill="#FFFFFF" d="M1583.4,449.5c-2.5,0-4.9-0.9-6.8-2.8l-31.1-31.1c-3.8-3.8-3.8-9.9,0-13.7c3.8-3.8,9.9-3.8,13.7,0
						l31.1,31.1c3.8,3.8,3.8,9.9,0,13.7C1588.4,448.6,1585.9,449.5,1583.4,449.5z"/>
				</g>
				<g>
					<path fill="#FFFFFF" d="M1552.3,482.1c-2.5,0-4.9-0.9-6.8-2.8c-3.8-3.8-3.8-9.9,0-13.7l31.1-31.1c3.8-3.8,9.9-3.8,13.7,0
						c3.8,3.8,3.8,9.9,0,13.7l-31.1,31.1C1557.2,481.2,1554.8,482.1,1552.3,482.1z"/>
				</g>
			</g>
			<g>
				<g>
					<path fill="#FFFFFF" d="M1489.3,352.5c-2.5,0-4.9-0.9-6.8-2.8c-3.8-3.8-3.8-9.9,0-13.7l31.1-31.1c3.8-3.8,9.9-3.8,13.7,0
						s3.8,9.9,0,13.7l-31.1,31.1C1494.2,351.5,1491.7,352.5,1489.3,352.5z"/>
				</g>
				<g>
					<path fill="#FFFFFF" d="M1520.4,385.1c-2.5,0-4.9-0.9-6.8-2.8l-31.1-31.1c-3.8-3.8-3.8-9.9,0-13.7s9.9-3.8,13.7,0l31.1,31.1
						c3.8,3.8,3.8,9.9,0,13.7C1525.3,384.1,1522.9,385.1,1520.4,385.1z"/>
				</g>
			</g>
			<g>
				<g>
					<path fill="#FFFFFF" d="M1583.4,352.5c-2.5,0-4.9-0.9-6.8-2.8l-31.1-31.1c-3.8-3.8-3.8-9.9,0-13.7c3.8-3.8,9.9-3.8,13.7,0
						l31.1,31.1c3.8,3.8,3.8,9.9,0,13.7C1588.4,351.5,1585.9,352.5,1583.4,352.5z"/>
				</g>
				<g>
					<path fill="#FFFFFF" d="M1552.3,385.1c-2.5,0-4.9-0.9-6.8-2.8c-3.8-3.8-3.8-9.9,0-13.7l31.1-31.1c3.8-3.8,9.9-3.8,13.7,0
						c3.8,3.8,3.8,9.9,0,13.7l-31.1,31.1C1557.2,384.1,1554.8,385.1,1552.3,385.1z"/>
				</g>
			</g>
		</g>
	</g>
	<g>
		<path fill="#FFFFFF" d="M1537.7,544.8c-81.9,0-148.6-66.6-148.6-148.6s66.6-148.6,148.6-148.6s148.6,66.6,148.6,148.6
			S1619.6,544.8,1537.7,544.8z M1537.7,267c-71.3,0-129.2,58-129.2,129.2s58,129.2,129.2,129.2s129.2-58,129.2-129.2
			S1609,267,1537.7,267z"/>
	</g>
</g>
</svg>
